<svg id="visual" viewBox="0 0 900 600" width="900" height="600" xmlns="http://www.w3.org/2000/svg" xmlns:xlink="http://www.w3.org/1999/xlink" version="1.1"><path d="M0 43L82 79L164 109L245 73L327 85L409 55L491 109L573 73L655 73L736 49L818 61L900 109L900 0L818 0L736 0L655 0L573 0L491 0L409 0L327 0L245 0L164 0L82 0L0 0Z" fill="#038373"></path><path d="M0 175L82 193L164 235L245 181L327 253L409 325L491 295L573 253L655 193L736 247L818 199L900 307L900 107L818 59L736 47L655 71L573 71L491 107L409 53L327 83L245 71L164 107L82 77L0 41Z" fill="#00957c"></path><path d="M0 247L82 337L164 373L245 235L327 343L409 409L491 427L573 343L655 331L736 385L818 301L900 397L900 305L818 197L736 245L655 191L573 251L491 293L409 323L327 251L245 179L164 233L82 191L0 173Z" fill="#00a784"></path><path d="M0 331L82 391L164 439L245 337L327 427L409 463L491 499L573 445L655 433L736 487L818 391L900 439L900 395L818 299L736 383L655 329L573 341L491 425L409 407L327 341L245 233L164 371L82 335L0 245Z" fill="#00b98a"></path><path d="M0 601L82 601L164 601L245 601L327 601L409 601L491 601L573 601L655 601L736 601L818 601L900 601L900 437L818 389L736 485L655 431L573 443L491 497L409 461L327 425L245 335L164 437L82 389L0 329Z" fill="#00cc8e"></path></svg>